<svg width="150" height="73" xmlns="http://www.w3.org/2000/svg">
 <!-- Created with Method Draw - http://github.com/duopixel/Method-Draw/ -->
 <g>
  <title>background</title>
  <rect fill="#000000" id="canvas_background" height="75" width="152" y="-1" x="-1"/>
  <g display="none" overflow="visible" y="0" x="0" height="100%" width="100%" id="canvasGrid">
   <rect fill="url(#gridpattern)" stroke-width="0" y="0" x="0" height="100%" width="100%"/>
  </g>
 </g>
 <g>
  <title>Layer 1</title>
  <ellipse ry="34.999999" rx="39" id="svg_3" cy="35.750003" cx="74.75" stroke-opacity="null" stroke-width="1.5" fill="#aaffff"/>
  <ellipse ry="17.000006" rx="74.000002" id="svg_1" cy="54.750006" cx="74.750002" stroke-width="1.5" fill="#999999"/>
  <ellipse ry="7" rx="7" id="svg_5" cy="54.750002" cx="45.75" stroke-opacity="null" stroke-width="1.5" fill="#ffff00"/>
  <ellipse ry="7" rx="7" id="svg_6" cy="54.750002" cx="71.75" stroke-opacity="null" stroke-width="1.5" fill="#ffff00"/>
  <ellipse ry="7" rx="7" id="svg_7" cy="54.750002" cx="99.75" stroke-opacity="null" stroke-width="1.5" fill="#ffff00"/>
  <ellipse ry="10.5" rx="10.5" id="svg_8" cy="24.250002" cx="74.25" stroke-opacity="null" stroke-width="1.5" fill="#05af4c"/>
  <ellipse ry="2.124972" rx="2.124972" id="svg_9" cy="23.472492" cx="69.571344" stroke-opacity="null" stroke-width="1.5" stroke="null" fill="#ffffff"/>
  <ellipse ry="2.124972" rx="2.124972" id="svg_10" cy="23.472492" cx="79.071218" stroke-opacity="null" stroke-width="1.5" stroke="null" fill="#ffffff"/>
  <path id="svg_12" d="m64.946404,13.347626" opacity="0.5" stroke-opacity="null" stroke-width="1.5" stroke="null" fill="#05af4c"/>
  <path id="svg_15" d="m66.625017,20.675032" opacity="0.5" stroke-opacity="null" stroke-width="1.5" stroke="null" fill="#05af4c"/>
  <path stroke="null" id="svg_16" d="m65.926879,18.597216c0,0 -0.794442,-6.644918 -0.927013,-6.84724c0.13257,0.202322 10.195507,5.113784 10.195507,5.113784c0,0 7.67961,-4.044733 7.67961,-4.044733c0,0 0,6.356008 0,6.356008c0,0 -16.948105,-0.577819 -16.948105,-0.577819z" stroke-opacity="null" stroke-width="1.5" fill="#05af4c"/>
  <ellipse ry="1.499997" rx="1.499997" id="svg_18" cy="11.67505" cx="64.625021" fill-opacity="null" stroke-opacity="null" stroke-width="1.5" stroke="null" fill="#05af4c"/>
  <ellipse ry="1.499997" rx="1.499997" id="svg_19" cy="12.175049" cx="83.124982" fill-opacity="null" stroke-opacity="null" stroke-width="1.5" stroke="null" fill="#05af4c"/>
 </g>
</svg>